<svg xmlns="http://www.w3.org/2000/svg" viewBox="-8 -8 116 116" width="200" height="200">
  <defs>
    <linearGradient id="pg1" x1="20%" y1="10%" x2="80%" y2="90%">
      <stop offset="0%"   stop-color="#6dcc88"/>
      <stop offset="40%"  stop-color="#3a9858"/>
      <stop offset="100%" stop-color="#1b5c34"/>
    </linearGradient>
    <linearGradient id="pg2" x1="80%" y1="0%" x2="20%" y2="100%">
      <stop offset="0%"   stop-color="#2d7a48"/>
      <stop offset="100%" stop-color="#0e3820"/>
    </linearGradient>
    <radialGradient id="pg3" cx="50%" cy="46%" r="50%">
      <stop offset="60%"  stop-color="transparent"/>
      <stop offset="100%" stop-color="rgba(10,40,18,0.55)"/>
    </radialGradient>
    <mask id="ptm">
      <path fill="white" d="M50,8 C57,8 63,11 67,16 L85,46 C89,52 89,59 86,65 C83,71 77,74 71,74 L29,74 C23,74 17,71 14,65 C11,59 11,52 15,46 L33,16 C37,11 43,8 50,8 Z"/>
      <circle cx="50" cy="46" r="20" fill="black"/>
    </mask>
  </defs>
  <g transform="rotate(180 50 50)">
    <rect width="100" height="100" fill="url(#pg1)" mask="url(#ptm)"/>
    <path d="M67,16 L85,46 C89,52 89,59 86,65 C83,71 77,74 71,74 L50,74 L50,54 C56,54 61,51 64,46 L72,32 Z" fill="url(#pg2)" mask="url(#ptm)" opacity="0.6"/>
    <path d="M29,74 L14,65 C11,59 11,52 15,46 L33,16 L42,30 C38,35 38,42 41,47 L50,62 L50,74 Z" fill="url(#pg2)" mask="url(#ptm)" opacity="0.35"/>
    <rect width="100" height="100" fill="url(#pg3)" mask="url(#ptm)"/>
    <path d="M37,12 C42,9 50,8 58,10 C62,11 65,13 67,16" fill="none" stroke="rgba(180,255,210,0.50)" stroke-width="2" stroke-linecap="round" mask="url(#ptm)"/>
    <circle cx="50" cy="46" r="20" fill="none" stroke="rgba(8,30,16,0.45)" stroke-width="1.2" mask="url(#ptm)"/>
  </g>
</svg>
